<mxfile host="app.diagrams.net" modified="2023-06-15T08:16:22.975Z" agent="Mozilla/5.0 (X11; Linux x86_64) AppleWebKit/537.36 (KHTML, like Gecko) Chrome/114.0.0.0 Safari/537.36" version="21.4.0" etag="OhzU1VuvnQ6fl2KQuL9r" type="github">
  <diagram name="Page-1" id="BFGfW3Kk1LTXJfpRsurR">
    <mxGraphModel>
      <root>
        <mxCell id="0" />
        <mxCell id="1" parent="0" />
      </root>
    </mxGraphModel>
  </diagram>
</mxfile>
